<svg xmlns="http://www.w3.org/2000/svg" viewBox="0 0 487.47 483.57"><defs><style>.cls-1{fill:none;}.cls-2{fill:#00233a;}</style></defs><g id="Layer_2" data-name="Layer 2"><g id="logomark"><g id="logomark-2" data-name="logomark"><path class="cls-1" d="M228.39,284.6a18.77,18.77,0,1,0-26.5,0A18.79,18.79,0,0,0,228.39,284.6Z"/><polygon class="cls-1" points="23.16 483.48 23.25 483.57 23.44 483.38 23.16 483.48"/><path class="cls-1" d="M175.79,231.26c23.66-23.66,65.63-18.31,84.56,15,8.58,15.09,9.25,33.94,1,49.22-14.41,26.76-45.85,33.38-70.28,20.23L23.44,483.38,322.53,377.71l2-2,8.38-40.31,8.54-29.88,7.67-20L357.75,266l9.48-16.27,7.64-11.91,9.38-13.36,8.37-11.38,7.5-8.76,5.13-6.1L284.37,77.37l-9.44,9.44-9.21,8.06-9.35,6.76-9.64,6.67-9.36,5.9-7.48,4.7-7.63,4.47-6,3-6.62,3.45L203.12,133l-5.66,2.3-8.16,3.84-8.06,3.07-7.05,2.64-4.61,1.44L164.74,148,157.59,150l-3.74.86-6.43,1.63L141.18,154l-6.57,1.68-7.48,1.54-5.52.91-6.33,1.25-8,1.63-1.59.14L103.14,169l-8.73,24.37L80.79,231.64,70.66,260.86l-4.74,12.61-9.31,26.58-7.1,19.67-6.29,17.22L29.94,375.37,16.5,412.31,4.8,445.89,0,458.46,167.21,291.25C157.12,271.4,159.88,247.17,175.79,231.26Z"/><path class="cls-2" d="M260.35,246.27c-18.93-33.32-60.91-38.67-84.57-15-15.91,15.91-18.66,40.14-8.58,60L0,458.46V472H11.61v11.61H23.24l-.09-.09.28-.1L191.09,315.72c24.42,13.15,55.86,6.53,70.27-20.23C269.6,280.21,268.93,261.36,260.35,246.27Zm-32,38.33a18.77,18.77,0,1,1,.05-26.55A18.77,18.77,0,0,1,228.39,284.6Z"/><rect class="cls-2" x="31.58" width="38.11" height="33.34"/><rect class="cls-2" y="71.49" width="31.58" height="35.33"/><path class="cls-2" d="M414.39,408v75.55H453.1V408ZM448.78,203.1,284.37,38.68,323.06,0H107.8V71.49H69.69v35.33H91v29.55H66.87V109.65H34.41v31.52H0V458.46l4.79-12.57L16.5,412.31l13.43-36.94,13.29-38.43,6.28-17.22,7.1-19.67,9.31-26.58,4.75-12.61,10.12-29.22,13.63-38.28L103.14,169l2.59-7.87,1.58-.14,8-1.63,6.34-1.25,5.51-.91,7.49-1.54,6.57-1.68,6.24-1.44,6.43-1.63,3.74-.86,7.15-2.06,4.84-1.68,4.61-1.44,7.05-2.64,8.06-3.07,8.15-3.84,5.66-2.3,6.48-3.22,6.62-3.45,6-3,7.63-4.47,7.49-4.7,9.35-5.9,9.64-6.67,9.36-6.76,9.21-8.06,9.44-9.44L405.24,198.24l-5.13,6.1-7.5,8.76-8.36,11.38-9.39,13.36-7.64,11.91L357.75,266l-8.65,19.51-7.68,20-8.53,29.88-8.38,40.31-2,2L23.43,483.38l-.19.19H375.68V408h38.71V372.18H386.53V341.7h30.73v27.61h33V333.46h37.24v-169Zm4.32,169.08V408h34.37V372.18Z"/></g></g></g></svg>